<mxfile host="Electron" modified="2024-02-13T17:47:39.298Z" agent="Mozilla/5.0 (Windows NT 10.0; Win64; x64) AppleWebKit/537.36 (KHTML, like Gecko) draw.io/23.0.2 Chrome/120.0.6099.109 Electron/28.1.0 Safari/537.36" etag="n-vhlUiIrXiz8xP6C70s" version="23.0.2" type="device" pages="3">
  <diagram name="Page-1" id="6SX-YVDo_g5XtdErG8Jm">
    <mxGraphModel dx="1877" dy="621" grid="1" gridSize="10" guides="1" tooltips="1" connect="1" arrows="1" fold="1" page="1" pageScale="1" pageWidth="827" pageHeight="1169" math="0" shadow="1">
      <root>
        <mxCell id="0" />
        <mxCell id="1" parent="0" />
        <mxCell id="zgwpxaIfBUWsn_owNHMs-1" value="" style="rounded=0;whiteSpace=wrap;html=1;" parent="1" vertex="1">
          <mxGeometry x="-760" y="115" width="160" height="60" as="geometry" />
        </mxCell>
        <mxCell id="zgwpxaIfBUWsn_owNHMs-2" value="" style="endArrow=classic;html=1;rounded=0;entryX=0.011;entryY=0.55;entryDx=0;entryDy=0;entryPerimeter=0;" parent="1" edge="1">
          <mxGeometry width="50" height="50" relative="1" as="geometry">
            <mxPoint x="-610" y="190.29" as="sourcePoint" />
            <mxPoint x="-465" y="190" as="targetPoint" />
          </mxGeometry>
        </mxCell>
        <mxCell id="zgwpxaIfBUWsn_owNHMs-5" value="" style="ellipse;whiteSpace=wrap;html=1;aspect=fixed;" parent="1" vertex="1">
          <mxGeometry x="-465" y="150" width="90" height="90" as="geometry" />
        </mxCell>
        <mxCell id="zgwpxaIfBUWsn_owNHMs-6" value="" style="endArrow=none;html=1;rounded=0;entryX=0.944;entryY=0.276;entryDx=0;entryDy=0;entryPerimeter=0;exitX=0.038;exitY=0.273;exitDx=0;exitDy=0;exitPerimeter=0;" parent="1" source="zgwpxaIfBUWsn_owNHMs-5" target="zgwpxaIfBUWsn_owNHMs-5" edge="1">
          <mxGeometry width="50" height="50" relative="1" as="geometry">
            <mxPoint x="-465" y="174.5" as="sourcePoint" />
            <mxPoint x="-375" y="174.5" as="targetPoint" />
            <Array as="points">
              <mxPoint x="-445" y="174.5" />
              <mxPoint x="-425" y="174.5" />
            </Array>
          </mxGeometry>
        </mxCell>
        <mxCell id="zgwpxaIfBUWsn_owNHMs-7" value="1.0" style="text;html=1;strokeColor=none;fillColor=none;align=center;verticalAlign=middle;whiteSpace=wrap;rounded=0;" parent="1" vertex="1">
          <mxGeometry x="-450" y="150" width="60" height="30" as="geometry" />
        </mxCell>
        <mxCell id="zgwpxaIfBUWsn_owNHMs-9" value="Login" style="text;html=1;strokeColor=none;fillColor=none;align=center;verticalAlign=middle;whiteSpace=wrap;rounded=0;" parent="1" vertex="1">
          <mxGeometry x="-450" y="190" width="60" height="30" as="geometry" />
        </mxCell>
        <mxCell id="zgwpxaIfBUWsn_owNHMs-10" value="" style="endArrow=classic;html=1;rounded=0;" parent="1" edge="1">
          <mxGeometry width="50" height="50" relative="1" as="geometry">
            <mxPoint x="-375" y="190" as="sourcePoint" />
            <mxPoint x="-225" y="190" as="targetPoint" />
          </mxGeometry>
        </mxCell>
        <mxCell id="zgwpxaIfBUWsn_owNHMs-11" value="" style="endArrow=classic;html=1;rounded=0;" parent="1" edge="1">
          <mxGeometry width="50" height="50" relative="1" as="geometry">
            <mxPoint x="-260" y="220" as="sourcePoint" />
            <mxPoint x="-380" y="220" as="targetPoint" />
            <Array as="points">
              <mxPoint x="-220" y="220" />
            </Array>
          </mxGeometry>
        </mxCell>
        <mxCell id="zgwpxaIfBUWsn_owNHMs-12" value="" style="endArrow=none;html=1;rounded=0;" parent="1" edge="1">
          <mxGeometry width="50" height="50" relative="1" as="geometry">
            <mxPoint x="-200" y="229.31" as="sourcePoint" />
            <mxPoint x="-80" y="229.31" as="targetPoint" />
          </mxGeometry>
        </mxCell>
        <mxCell id="zgwpxaIfBUWsn_owNHMs-13" value="" style="endArrow=none;html=1;rounded=0;" parent="1" edge="1">
          <mxGeometry width="50" height="50" relative="1" as="geometry">
            <mxPoint x="-200" y="189" as="sourcePoint" />
            <mxPoint x="-80" y="189" as="targetPoint" />
          </mxGeometry>
        </mxCell>
        <mxCell id="zgwpxaIfBUWsn_owNHMs-14" value="Login Master" style="text;html=1;strokeColor=none;fillColor=none;align=center;verticalAlign=middle;whiteSpace=wrap;rounded=0;" parent="1" vertex="1">
          <mxGeometry x="-175" y="190" width="80" height="30" as="geometry" />
        </mxCell>
        <mxCell id="zgwpxaIfBUWsn_owNHMs-15" value="&amp;nbsp; &amp;nbsp; &amp;nbsp;ADMIN" style="text;html=1;strokeColor=none;fillColor=none;align=center;verticalAlign=middle;whiteSpace=wrap;rounded=0;" parent="1" vertex="1">
          <mxGeometry x="-730" y="130" width="60" height="30" as="geometry" />
        </mxCell>
        <mxCell id="zgwpxaIfBUWsn_owNHMs-20" value="" style="edgeStyle=segmentEdgeStyle;endArrow=classic;html=1;curved=0;rounded=0;endSize=8;startSize=8;entryX=0.538;entryY=1.002;entryDx=0;entryDy=0;entryPerimeter=0;" parent="1" source="zgwpxaIfBUWsn_owNHMs-29" target="zgwpxaIfBUWsn_owNHMs-1" edge="1">
          <mxGeometry width="50" height="50" relative="1" as="geometry">
            <mxPoint x="-479" y="360" as="sourcePoint" />
            <mxPoint x="-660" y="180" as="targetPoint" />
            <Array as="points">
              <mxPoint x="-674" y="350" />
            </Array>
          </mxGeometry>
        </mxCell>
        <mxCell id="zgwpxaIfBUWsn_owNHMs-27" value="" style="endArrow=classic;html=1;rounded=0;entryX=0;entryY=0;entryDx=0;entryDy=0;" parent="1" edge="1">
          <mxGeometry width="50" height="50" relative="1" as="geometry">
            <mxPoint x="-650" y="310" as="sourcePoint" />
            <mxPoint x="-467.6753390593274" y="310.0046609406726" as="targetPoint" />
            <Array as="points" />
          </mxGeometry>
        </mxCell>
        <mxCell id="zgwpxaIfBUWsn_owNHMs-28" value="" style="endArrow=none;html=1;rounded=0;entryX=0.689;entryY=1.002;entryDx=0;entryDy=0;entryPerimeter=0;" parent="1" target="zgwpxaIfBUWsn_owNHMs-1" edge="1">
          <mxGeometry width="50" height="50" relative="1" as="geometry">
            <mxPoint x="-650" y="310" as="sourcePoint" />
            <mxPoint x="-640" y="180" as="targetPoint" />
          </mxGeometry>
        </mxCell>
        <mxCell id="zgwpxaIfBUWsn_owNHMs-29" value="" style="ellipse;whiteSpace=wrap;html=1;aspect=fixed;" parent="1" vertex="1">
          <mxGeometry x="-470" y="270" width="100" height="100" as="geometry" />
        </mxCell>
        <mxCell id="zgwpxaIfBUWsn_owNHMs-30" value="" style="endArrow=none;html=1;rounded=0;exitX=0.051;exitY=0.314;exitDx=0;exitDy=0;exitPerimeter=0;" parent="1" source="zgwpxaIfBUWsn_owNHMs-29" edge="1">
          <mxGeometry width="50" height="50" relative="1" as="geometry">
            <mxPoint x="-465" y="301" as="sourcePoint" />
            <mxPoint x="-375" y="301" as="targetPoint" />
          </mxGeometry>
        </mxCell>
        <mxCell id="zgwpxaIfBUWsn_owNHMs-32" value="2.0" style="text;html=1;strokeColor=none;fillColor=none;align=center;verticalAlign=middle;whiteSpace=wrap;rounded=0;" parent="1" vertex="1">
          <mxGeometry x="-450" y="271" width="60" height="29" as="geometry" />
        </mxCell>
        <mxCell id="zgwpxaIfBUWsn_owNHMs-33" value="Alter&amp;nbsp;&lt;br&gt;Product" style="text;html=1;strokeColor=none;fillColor=none;align=center;verticalAlign=middle;whiteSpace=wrap;rounded=0;" parent="1" vertex="1">
          <mxGeometry x="-450" y="310" width="60" height="30" as="geometry" />
        </mxCell>
        <mxCell id="zgwpxaIfBUWsn_owNHMs-34" value="" style="endArrow=classic;html=1;rounded=0;" parent="1" edge="1">
          <mxGeometry width="50" height="50" relative="1" as="geometry">
            <mxPoint x="-370" y="298.95" as="sourcePoint" />
            <mxPoint x="-220" y="298.95" as="targetPoint" />
          </mxGeometry>
        </mxCell>
        <mxCell id="zgwpxaIfBUWsn_owNHMs-35" value="" style="endArrow=classic;html=1;rounded=0;" parent="1" edge="1">
          <mxGeometry width="50" height="50" relative="1" as="geometry">
            <mxPoint x="-260" y="350" as="sourcePoint" />
            <mxPoint x="-380" y="350" as="targetPoint" />
            <Array as="points">
              <mxPoint x="-220" y="350" />
            </Array>
          </mxGeometry>
        </mxCell>
        <mxCell id="zgwpxaIfBUWsn_owNHMs-37" value="" style="endArrow=none;html=1;rounded=0;" parent="1" edge="1">
          <mxGeometry width="50" height="50" relative="1" as="geometry">
            <mxPoint x="-200" y="349.31" as="sourcePoint" />
            <mxPoint x="-80" y="349.31" as="targetPoint" />
          </mxGeometry>
        </mxCell>
        <mxCell id="zgwpxaIfBUWsn_owNHMs-38" value="" style="endArrow=none;html=1;rounded=0;" parent="1" edge="1">
          <mxGeometry width="50" height="50" relative="1" as="geometry">
            <mxPoint x="-200" y="300" as="sourcePoint" />
            <mxPoint x="-80" y="300" as="targetPoint" />
          </mxGeometry>
        </mxCell>
        <mxCell id="zgwpxaIfBUWsn_owNHMs-40" value="Product Master" style="text;html=1;strokeColor=none;fillColor=none;align=center;verticalAlign=middle;whiteSpace=wrap;rounded=0;" parent="1" vertex="1">
          <mxGeometry x="-180" y="310" width="90" height="30" as="geometry" />
        </mxCell>
        <mxCell id="zgwpxaIfBUWsn_owNHMs-41" value="" style="endArrow=classic;html=1;rounded=0;entryX=0;entryY=0.395;entryDx=0;entryDy=0;entryPerimeter=0;" parent="1" target="zgwpxaIfBUWsn_owNHMs-42" edge="1">
          <mxGeometry width="50" height="50" relative="1" as="geometry">
            <mxPoint x="-700" y="440" as="sourcePoint" />
            <mxPoint x="-473" y="440" as="targetPoint" />
          </mxGeometry>
        </mxCell>
        <mxCell id="zgwpxaIfBUWsn_owNHMs-42" value="" style="ellipse;whiteSpace=wrap;html=1;aspect=fixed;" parent="1" vertex="1">
          <mxGeometry x="-470" y="400" width="100" height="100" as="geometry" />
        </mxCell>
        <mxCell id="zgwpxaIfBUWsn_owNHMs-43" value="" style="endArrow=none;html=1;rounded=0;" parent="1" edge="1">
          <mxGeometry width="50" height="50" relative="1" as="geometry">
            <mxPoint x="-465" y="430" as="sourcePoint" />
            <mxPoint x="-375" y="430" as="targetPoint" />
          </mxGeometry>
        </mxCell>
        <mxCell id="zgwpxaIfBUWsn_owNHMs-45" value="View Order" style="text;html=1;strokeColor=none;fillColor=none;align=center;verticalAlign=middle;whiteSpace=wrap;rounded=0;" parent="1" vertex="1">
          <mxGeometry x="-450" y="450" width="60" height="30" as="geometry" />
        </mxCell>
        <mxCell id="zgwpxaIfBUWsn_owNHMs-46" value="" style="endArrow=classic;html=1;rounded=0;" parent="1" edge="1">
          <mxGeometry width="50" height="50" relative="1" as="geometry">
            <mxPoint x="-370" y="440" as="sourcePoint" />
            <mxPoint x="-210" y="440" as="targetPoint" />
          </mxGeometry>
        </mxCell>
        <mxCell id="zgwpxaIfBUWsn_owNHMs-47" value="" style="endArrow=classic;html=1;rounded=0;" parent="1" edge="1">
          <mxGeometry width="50" height="50" relative="1" as="geometry">
            <mxPoint x="-300" y="480" as="sourcePoint" />
            <mxPoint x="-380" y="480" as="targetPoint" />
            <Array as="points">
              <mxPoint x="-220" y="480" />
            </Array>
          </mxGeometry>
        </mxCell>
        <mxCell id="zgwpxaIfBUWsn_owNHMs-48" value="" style="endArrow=none;html=1;rounded=0;" parent="1" edge="1">
          <mxGeometry width="50" height="50" relative="1" as="geometry">
            <mxPoint x="-200" y="480" as="sourcePoint" />
            <mxPoint x="-80" y="480" as="targetPoint" />
          </mxGeometry>
        </mxCell>
        <mxCell id="zgwpxaIfBUWsn_owNHMs-49" value="" style="endArrow=none;html=1;rounded=0;" parent="1" edge="1">
          <mxGeometry width="50" height="50" relative="1" as="geometry">
            <mxPoint x="-201.75" y="439.13" as="sourcePoint" />
            <mxPoint x="-80" y="439.13" as="targetPoint" />
          </mxGeometry>
        </mxCell>
        <mxCell id="zgwpxaIfBUWsn_owNHMs-50" value="Order Master" style="text;html=1;strokeColor=none;fillColor=none;align=center;verticalAlign=middle;whiteSpace=wrap;rounded=0;" parent="1" vertex="1">
          <mxGeometry x="-180" y="440" width="80" height="30" as="geometry" />
        </mxCell>
        <mxCell id="zgwpxaIfBUWsn_owNHMs-51" value="" style="edgeStyle=segmentEdgeStyle;endArrow=classic;html=1;curved=0;rounded=0;endSize=8;startSize=8;exitX=0.079;exitY=0.797;exitDx=0;exitDy=0;exitPerimeter=0;entryX=0.25;entryY=1;entryDx=0;entryDy=0;" parent="1" source="zgwpxaIfBUWsn_owNHMs-42" target="zgwpxaIfBUWsn_owNHMs-1" edge="1">
          <mxGeometry width="50" height="50" relative="1" as="geometry">
            <mxPoint x="-477" y="480" as="sourcePoint" />
            <mxPoint x="-700" y="180" as="targetPoint" />
          </mxGeometry>
        </mxCell>
        <mxCell id="zgwpxaIfBUWsn_owNHMs-52" value="" style="endArrow=none;html=1;rounded=0;entryX=0.379;entryY=1.001;entryDx=0;entryDy=0;entryPerimeter=0;" parent="1" target="zgwpxaIfBUWsn_owNHMs-1" edge="1">
          <mxGeometry width="50" height="50" relative="1" as="geometry">
            <mxPoint x="-699" y="440" as="sourcePoint" />
            <mxPoint x="-680" y="190" as="targetPoint" />
          </mxGeometry>
        </mxCell>
        <mxCell id="zgwpxaIfBUWsn_owNHMs-79" value="3.0" style="text;html=1;strokeColor=none;fillColor=none;align=center;verticalAlign=middle;whiteSpace=wrap;rounded=0;" parent="1" vertex="1">
          <mxGeometry x="-450" y="400" width="60" height="30" as="geometry" />
        </mxCell>
        <mxCell id="zgwpxaIfBUWsn_owNHMs-116" value="Response" style="text;html=1;strokeColor=none;fillColor=none;align=center;verticalAlign=middle;whiteSpace=wrap;rounded=0;" parent="1" vertex="1">
          <mxGeometry x="-330" y="230" width="60" height="30" as="geometry" />
        </mxCell>
        <mxCell id="zgwpxaIfBUWsn_owNHMs-117" value="Response" style="text;html=1;strokeColor=none;fillColor=none;align=center;verticalAlign=middle;whiteSpace=wrap;rounded=0;" parent="1" vertex="1">
          <mxGeometry x="-580" y="230" width="60" height="30" as="geometry" />
        </mxCell>
        <mxCell id="zgwpxaIfBUWsn_owNHMs-118" value="Response" style="text;html=1;strokeColor=none;fillColor=none;align=center;verticalAlign=middle;whiteSpace=wrap;rounded=0;" parent="1" vertex="1">
          <mxGeometry x="-590" y="350" width="60" height="30" as="geometry" />
        </mxCell>
        <mxCell id="zgwpxaIfBUWsn_owNHMs-119" value="Response" style="text;html=1;strokeColor=none;fillColor=none;align=center;verticalAlign=middle;whiteSpace=wrap;rounded=0;" parent="1" vertex="1">
          <mxGeometry x="-330" y="350" width="60" height="30" as="geometry" />
        </mxCell>
        <mxCell id="zgwpxaIfBUWsn_owNHMs-120" value="Response" style="text;html=1;strokeColor=none;fillColor=none;align=center;verticalAlign=middle;whiteSpace=wrap;rounded=0;" parent="1" vertex="1">
          <mxGeometry x="-600" y="476" width="60" height="30" as="geometry" />
        </mxCell>
        <mxCell id="zgwpxaIfBUWsn_owNHMs-121" value="Response" style="text;html=1;strokeColor=none;fillColor=none;align=center;verticalAlign=middle;whiteSpace=wrap;rounded=0;" parent="1" vertex="1">
          <mxGeometry x="-310" y="480" width="60" height="30" as="geometry" />
        </mxCell>
        <mxCell id="zgwpxaIfBUWsn_owNHMs-129" value="Alter Product" style="text;html=1;strokeColor=none;fillColor=none;align=center;verticalAlign=middle;whiteSpace=wrap;rounded=0;" parent="1" vertex="1">
          <mxGeometry x="-345" y="271" width="117.5" height="30" as="geometry" />
        </mxCell>
        <mxCell id="zgwpxaIfBUWsn_owNHMs-131" value="View Order" style="text;html=1;strokeColor=none;fillColor=none;align=center;verticalAlign=middle;whiteSpace=wrap;rounded=0;" parent="1" vertex="1">
          <mxGeometry x="-640" y="410" width="140" height="30" as="geometry" />
        </mxCell>
        <mxCell id="zgwpxaIfBUWsn_owNHMs-132" value="View Order" style="text;html=1;strokeColor=none;fillColor=none;align=center;verticalAlign=middle;whiteSpace=wrap;rounded=0;" parent="1" vertex="1">
          <mxGeometry x="-315" y="410" width="70" height="30" as="geometry" />
        </mxCell>
        <mxCell id="ua0aeTxGW8Ati1CmODzh-1" value="Request for Login" style="text;html=1;align=center;verticalAlign=middle;resizable=0;points=[];autosize=1;strokeColor=none;fillColor=none;" parent="1" vertex="1">
          <mxGeometry x="-590" y="160" width="120" height="30" as="geometry" />
        </mxCell>
        <mxCell id="ua0aeTxGW8Ati1CmODzh-2" value="Request for Login" style="text;html=1;align=center;verticalAlign=middle;resizable=0;points=[];autosize=1;strokeColor=none;fillColor=none;" parent="1" vertex="1">
          <mxGeometry x="-360" y="160" width="120" height="30" as="geometry" />
        </mxCell>
        <mxCell id="Nu1VKlrMWvafhJW6VYbJ-2" value="Alter Product" style="text;html=1;align=center;verticalAlign=middle;resizable=0;points=[];autosize=1;strokeColor=none;fillColor=none;" parent="1" vertex="1">
          <mxGeometry x="-600" y="280" width="90" height="30" as="geometry" />
        </mxCell>
        <mxCell id="OY5YFPd1Z5ilC0h_qAIp-7" value="" style="edgeStyle=segmentEdgeStyle;endArrow=classic;html=1;curved=0;rounded=0;endSize=8;startSize=8;entryX=0.827;entryY=1.003;entryDx=0;entryDy=0;entryPerimeter=0;" parent="1" source="zgwpxaIfBUWsn_owNHMs-5" target="zgwpxaIfBUWsn_owNHMs-1" edge="1">
          <mxGeometry width="50" height="50" relative="1" as="geometry">
            <mxPoint x="-449.99999999999994" y="222.73999999999995" as="sourcePoint" />
            <mxPoint x="-622" y="180" as="targetPoint" />
            <Array as="points">
              <mxPoint x="-628" y="230" />
            </Array>
          </mxGeometry>
        </mxCell>
        <mxCell id="OY5YFPd1Z5ilC0h_qAIp-10" value="" style="endArrow=none;html=1;rounded=0;" parent="1" edge="1">
          <mxGeometry width="50" height="50" relative="1" as="geometry">
            <mxPoint x="-610" y="190" as="sourcePoint" />
            <mxPoint x="-610" y="175" as="targetPoint" />
          </mxGeometry>
        </mxCell>
        <mxCell id="OY5YFPd1Z5ilC0h_qAIp-23" value="" style="ellipse;whiteSpace=wrap;html=1;aspect=fixed;" parent="1" vertex="1">
          <mxGeometry x="-470" y="530" width="100" height="100" as="geometry" />
        </mxCell>
        <mxCell id="OY5YFPd1Z5ilC0h_qAIp-24" value="" style="endArrow=none;html=1;rounded=0;" parent="1" edge="1">
          <mxGeometry width="50" height="50" relative="1" as="geometry">
            <mxPoint x="-465" y="560" as="sourcePoint" />
            <mxPoint x="-375" y="560" as="targetPoint" />
          </mxGeometry>
        </mxCell>
        <mxCell id="OY5YFPd1Z5ilC0h_qAIp-25" value="View&lt;br&gt;Product" style="text;html=1;strokeColor=none;fillColor=none;align=center;verticalAlign=middle;whiteSpace=wrap;rounded=0;" parent="1" vertex="1">
          <mxGeometry x="-450" y="580" width="60" height="30" as="geometry" />
        </mxCell>
        <mxCell id="OY5YFPd1Z5ilC0h_qAIp-26" value="4.0" style="text;html=1;strokeColor=none;fillColor=none;align=center;verticalAlign=middle;whiteSpace=wrap;rounded=0;" parent="1" vertex="1">
          <mxGeometry x="-450" y="530" width="60" height="30" as="geometry" />
        </mxCell>
        <mxCell id="OY5YFPd1Z5ilC0h_qAIp-27" value="" style="endArrow=classic;html=1;rounded=0;entryX=0.047;entryY=0.303;entryDx=0;entryDy=0;entryPerimeter=0;" parent="1" edge="1">
          <mxGeometry width="50" height="50" relative="1" as="geometry">
            <mxPoint x="-740" y="570" as="sourcePoint" />
            <mxPoint x="-469.99999999999994" y="570.0000000000002" as="targetPoint" />
          </mxGeometry>
        </mxCell>
        <mxCell id="OY5YFPd1Z5ilC0h_qAIp-28" value="" style="endArrow=none;html=1;rounded=0;entryX=0.125;entryY=0.998;entryDx=0;entryDy=0;entryPerimeter=0;" parent="1" target="zgwpxaIfBUWsn_owNHMs-1" edge="1">
          <mxGeometry width="50" height="50" relative="1" as="geometry">
            <mxPoint x="-740" y="570" as="sourcePoint" />
            <mxPoint x="-740" y="180" as="targetPoint" />
          </mxGeometry>
        </mxCell>
        <mxCell id="OY5YFPd1Z5ilC0h_qAIp-30" value="" style="edgeStyle=segmentEdgeStyle;endArrow=classic;html=1;curved=0;rounded=0;endSize=8;startSize=8;entryX=0.067;entryY=0.998;entryDx=0;entryDy=0;entryPerimeter=0;exitX=0.04;exitY=0.659;exitDx=0;exitDy=0;exitPerimeter=0;" parent="1" source="OY5YFPd1Z5ilC0h_qAIp-23" target="zgwpxaIfBUWsn_owNHMs-1" edge="1">
          <mxGeometry width="50" height="50" relative="1" as="geometry">
            <mxPoint x="-470" y="595" as="sourcePoint" />
            <mxPoint x="-750" y="180" as="targetPoint" />
            <Array as="points">
              <mxPoint x="-749" y="596" />
            </Array>
          </mxGeometry>
        </mxCell>
        <mxCell id="OY5YFPd1Z5ilC0h_qAIp-32" value="" style="endArrow=classic;html=1;rounded=0;entryX=1;entryY=0.7;entryDx=0;entryDy=0;entryPerimeter=0;" parent="1" target="OY5YFPd1Z5ilC0h_qAIp-23" edge="1">
          <mxGeometry width="50" height="50" relative="1" as="geometry">
            <mxPoint x="-285" y="600" as="sourcePoint" />
            <mxPoint x="-370" y="600" as="targetPoint" />
            <Array as="points">
              <mxPoint x="-210" y="600" />
            </Array>
          </mxGeometry>
        </mxCell>
        <mxCell id="OY5YFPd1Z5ilC0h_qAIp-33" value="Response" style="text;html=1;strokeColor=none;fillColor=none;align=center;verticalAlign=middle;whiteSpace=wrap;rounded=0;" parent="1" vertex="1">
          <mxGeometry x="-305" y="600" width="60" height="30" as="geometry" />
        </mxCell>
        <mxCell id="OY5YFPd1Z5ilC0h_qAIp-34" value="View Product" style="text;html=1;strokeColor=none;fillColor=none;align=center;verticalAlign=middle;whiteSpace=wrap;rounded=0;" parent="1" vertex="1">
          <mxGeometry x="-320" y="530" width="80" height="30" as="geometry" />
        </mxCell>
        <mxCell id="OY5YFPd1Z5ilC0h_qAIp-35" value="" style="endArrow=none;html=1;rounded=0;" parent="1" edge="1">
          <mxGeometry width="50" height="50" relative="1" as="geometry">
            <mxPoint x="-200" y="600" as="sourcePoint" />
            <mxPoint x="-80" y="600" as="targetPoint" />
          </mxGeometry>
        </mxCell>
        <mxCell id="OY5YFPd1Z5ilC0h_qAIp-36" value="" style="endArrow=none;html=1;rounded=0;" parent="1" edge="1">
          <mxGeometry width="50" height="50" relative="1" as="geometry">
            <mxPoint x="-200.87" y="560" as="sourcePoint" />
            <mxPoint x="-79.12" y="560" as="targetPoint" />
          </mxGeometry>
        </mxCell>
        <mxCell id="OY5YFPd1Z5ilC0h_qAIp-37" value="Order Master" style="text;html=1;strokeColor=none;fillColor=none;align=center;verticalAlign=middle;whiteSpace=wrap;rounded=0;" parent="1" vertex="1">
          <mxGeometry x="-175" y="565" width="80" height="30" as="geometry" />
        </mxCell>
        <mxCell id="OY5YFPd1Z5ilC0h_qAIp-38" value="View Product" style="text;html=1;strokeColor=none;fillColor=none;align=center;verticalAlign=middle;whiteSpace=wrap;rounded=0;" parent="1" vertex="1">
          <mxGeometry x="-660" y="530" width="140" height="30" as="geometry" />
        </mxCell>
        <mxCell id="OY5YFPd1Z5ilC0h_qAIp-39" value="Response" style="text;html=1;strokeColor=none;fillColor=none;align=center;verticalAlign=middle;whiteSpace=wrap;rounded=0;" parent="1" vertex="1">
          <mxGeometry x="-620" y="595" width="60" height="30" as="geometry" />
        </mxCell>
        <mxCell id="AW-ivi7rLpyF8qIaHPwW-2" value="" style="endArrow=classic;html=1;rounded=0;exitX=0.988;exitY=0.323;exitDx=0;exitDy=0;exitPerimeter=0;" parent="1" source="OY5YFPd1Z5ilC0h_qAIp-23" edge="1">
          <mxGeometry width="50" height="50" relative="1" as="geometry">
            <mxPoint x="-360" y="450" as="sourcePoint" />
            <mxPoint x="-210" y="563" as="targetPoint" />
          </mxGeometry>
        </mxCell>
      </root>
    </mxGraphModel>
  </diagram>
  <diagram id="l-psgjOiSpCOEVCHOxLd" name="Page-2">
    <mxGraphModel dx="1050" dy="621" grid="1" gridSize="10" guides="1" tooltips="1" connect="1" arrows="1" fold="1" page="1" pageScale="1" pageWidth="850" pageHeight="1100" math="0" shadow="0">
      <root>
        <mxCell id="0" />
        <mxCell id="1" parent="0" />
      </root>
    </mxGraphModel>
  </diagram>
  <diagram id="jSOurBqDiapJ5cva1BIl" name="Page-3">
    <mxGraphModel dx="1050" dy="621" grid="1" gridSize="10" guides="1" tooltips="1" connect="1" arrows="1" fold="1" page="1" pageScale="1" pageWidth="850" pageHeight="1100" math="0" shadow="0">
      <root>
        <mxCell id="0" />
        <mxCell id="1" parent="0" />
      </root>
    </mxGraphModel>
  </diagram>
</mxfile>
